<svg xmlns="http://www.w3.org/2000/svg" viewBox="0 0 1920 1080">
  <defs>
    <linearGradient id="city-sky" x1="0%" y1="0%" x2="0%" y2="100%">
      <stop offset="0%" style="stop-color:#1a1a2e"/>
      <stop offset="100%" style="stop-color:#2d2d44"/>
    </linearGradient>
  </defs>
  <rect width="100%" height="100%" fill="url(#city-sky)"/>
  <rect x="100" y="500" width="150" height="580" fill="#34495e"/>
  <rect x="300" y="400" width="200" height="680" fill="#2c3e50"/>
  <rect x="550" y="550" width="180" height="530" fill="#3d566e"/>
  <rect x="800" y="300" width="120" height="780" fill="#4a6278"/>
  <rect x="1000" y="450" width="200" height="630" fill="#2c3e50"/>
  <rect x="1250" y="350" width="150" height="730" fill="#34495e"/>
  <rect x="1450" y="500" width="180" height="580" fill="#3d566e"/>
  <rect x="1680" y="400" width="140" height="680" fill="#2c3e50"/>
  <circle cx="200" cy="700" r="8" fill="#f39c12"/>
  <circle cx="500" cy="650" r="8" fill="#f39c12"/>
  <circle cx="750" cy="720" r="8" fill="#f39c12"/>
  <circle cx="1100" cy="680" r="8" fill="#f39c12"/>
  <circle cx="1400" cy="640" r="8" fill="#f39c12"/>
  <circle cx="1700" cy="700" r="8" fill="#f39c12"/>
  <text x="960" y="540" text-anchor="middle" fill="#b5a642" font-family="serif" font-size="48">Leopolis</text>
  <text x="960" y="600" text-anchor="middle" fill="#a8d5e5" font-family="serif" font-size="24" font-style="italic">The Winter City</text>
</svg>
